<mxfile host="app.diagrams.net" modified="2024-05-29T14:47:21.531Z" agent="Mozilla/5.0 (Windows NT 10.0; Win64; x64) AppleWebKit/537.36 (KHTML, like Gecko) Chrome/125.0.0.0 Safari/537.36 Edg/125.0.0.0" version="24.2.5" etag="mu5ROWu32Yoad15cDI5E" type="github">
  <diagram name="第 1 页" id="fxgE_Eqv63JBTT38WuTJ">
    <mxGraphModel>
      <root>
        <mxCell id="0" />
        <mxCell id="1" parent="0" />
      </root>
    </mxGraphModel>
  </diagram>
</mxfile>
